# xmcd CD database file
#
# Track frame offsets:
#	150
#	37206
#	89851
#	129648
#	191682
#	241622
#
# Disc length: 3887 seconds
#
# Revision: 0
# Processed by: cddbd v1.5.1PL0 Copyright (c) Steve Scherf et al.
# Submitted via: CDex 1.51
#
DISCID=530f2d06
DTITLE=Lex Van Someren - Saga Symphony
DYEAR=2004
DGENRE=New Age
TTITLE0=Indy
TTITLE1=Call To Love
TTITLE2=Saga
TTITLE3=Hidden Treasure
TTITLE4=Asatoma
TTITLE5=Sri Ram, Jai Ram
EXTD=YEAR: 2004
EXTT0=
EXTT1=
EXTT2=
EXTT3=
EXTT4=
EXTT5=
PLAYORDER=
